:FULLY-SPECIFIED
:FORCE-ALL-JOINTS-BE-3DOF
:DEGREES
510
root -5.44065 14.9482 -42.274 3.86713 -13.4086 -7.6622
lfemur -36.0744 30.697 -21.5784
ltibia 65.6676 -0 0
lfoot -25.6428 29.4968 -0.140635
ltoes -0.611582 0 0
rfemur -29.7801 -9.9357 11.8216
rtibia 74.9509 -0 0
rfoot -6.97703 -13.7392 -0.0456066
rtoes 14.6858 -0 0
lowerback 16.5002 -0.501945 -7.12312
upperback -0.408727 -1.75809 3.28923
thorax -9.41716 -0.405266 8.11217
lowerneck 4.38515 -15.1733 -16.0783
upperneck 1.99623 -21.7225 18.351
head 3.83991 -11.0044 7.145
lclavicle 1.16289e-14 1.98785e-15 0
lhumerus -28.3593 -49.8419 109.89
lradius 87.4552 -0 0
lwrist 41.1113 0 0
lhand -7.54251 45.2026 -0.22628
lfingers 7.12502 -0 0
lthumb 18.3453 74.3037 -0.23162
rclavicle 1.16289e-14 1.98785e-15 0
rhumerus 47.114 29.7203 -35.7875
rradius 94.3822 -0 0
rwrist -19.5408 0 0
rhand -1.82519 -16.4692 0.175376
rfingers 7.12502 -0 0
rthumb 23.7437 -43.927 0.456277
511
root -5.49324 14.9287 -42.2873 3.67862 -16.7908 -7.41915
lfemur -34.2129 30.2576 -20.4886
ltibia 65.1087 -0 0
lfoot -25.3968 29.2664 -0.147107
ltoes -1.63496 0 0
rfemur -30.6419 -10.5811 11.5604
rtibia 74.6977 -0 0
rfoot -6.9485 -12.7516 -0.0359656
rtoes 14.4894 -0 0
lowerback 16.5393 -0.395559 -7.1817
upperback -0.363916 -1.64332 3.17529
thorax -9.41174 -0.353147 7.99184
lowerneck 4.10676 -15.0179 -15.9755
upperneck 2.34063 -21.4909 17.9796
head 3.89795 -10.8719 7.02224
lclavicle 1.16289e-14 1.98785e-15 0
lhumerus -30.5691 -48.1131 110.256
lradius 88.132 -0 0
lwrist 42.7609 0 0
lhand -7.80126 45.55 -0.232858
lfingers 7.12502 -0 0
lthumb 18.0962 74.6727 -0.238398
rclavicle 1.16289e-14 1.98785e-15 0
rhumerus 45.005 29.0503 -37.2651
rradius 92.4339 -0 0
rwrist -18.6512 0 0
rhand -2.9055 -16.5206 0.212462
rfingers 7.12502 -0 0
rthumb 22.7058 -44.0847 0.503077
512
root -5.53973 14.9086 -42.2959 3.4626 -20.1545 -7.15191
lfemur -32.3257 29.7566 -19.3916
ltibia 64.5441 -0 0
lfoot -25.1453 29.0304 -0.152628
ltoes -2.68718 0 0
rfemur -31.5286 -11.2366 11.3017
rtibia 74.4302 -0 0
rfoot -6.91503 -11.7381 -0.0259473
rtoes 14.2777 -0 0
lowerback 16.5781 -0.286117 -7.24045
upperback -0.318329 -1.52468 3.05923
thorax -9.40593 -0.299307 7.8683
lowerneck 3.8245 -14.8589 -15.87
upperneck 2.68641 -21.2521 17.6029
head 3.95536 -10.7365 6.89717
lclavicle 1.16289e-14 1.98785e-15 0
lhumerus -32.7389 -46.3476 110.511
lradius 88.8259 -0 0
lwrist 44.4368 0 0
lhand -8.06359 45.9008 -0.237815
lfingers 7.12502 -0 0
lthumb 17.8437 75.0455 -0.243519
rclavicle 1.16289e-14 1.98785e-15 0
rhumerus 42.893 28.3062 -38.7284
rradius 90.437 -0 0
rwrist -17.7576 0 0
rhand -4.00316 -16.589 0.249175
rfingers 7.12502 -0 0
rthumb 21.6511 -44.2618 0.54754
513
root -5.58081 14.8879 -42.3001 3.21636 -23.4899 -6.85758
lfemur -30.4217 29.194 -18.2946
ltibia 63.9754 -0 0
lfoot -24.8893 28.7894 -0.157117
ltoes -3.7651 0 0
rfemur -32.4379 -11.9002 11.0469
rtibia 74.1492 -0 0
rfoot -6.87673 -10.7019 -0.0157342
rtoes 14.0514 -0 0
lowerback 16.6166 -0.173945 -7.29921
upperback -0.272117 -1.40253 2.94141
thorax -9.39975 -0.243906 7.7419
lowerneck 3.53923 -14.6967 -15.7621
upperneck 3.03244 -21.0066 17.222
head 4.01196 -10.5985 6.77016
lclavicle 1.16289e-14 1.98785e-15 0
lhumerus -34.8704 -44.5533 110.661
lradius 89.5349 -0 0
lwrist 46.1339 0 0
lhand -8.32873 46.2542 -0.241089
lfingers 7.12502 -0 0
lthumb 17.5884 75.4211 -0.246917
rclavicle 1.16289e-14 1.98785e-15 0
rhumerus 40.788 27.4896 -40.1685
rradius 88.3976 -0 0
rwrist -16.8625 0 0
rhand -5.11497 -16.6741 0.284903
rfingers 7.12502 -0 0
rthumb 20.5829 -44.4578 0.588945
514
root -5.61718 14.8667 -42.3006 2.93677 -26.7874 -6.53291
lfemur -28.5094 28.5707 -17.2047
ltibia 63.4042 -0 0
lfoot -24.6295 28.5441 -0.160505
ltoes -4.86558 0 0
rfemur -33.3674 -12.5703 10.7973
rtibia 73.8555 -0 0
rfoot -6.8337 -9.64583 -0.00550656
rtoes 13.8112 -0 0
lowerback 16.6547 -0.0593722 -7.3578
upperback -0.225431 -1.27721 2.82216
thorax -9.39324 -0.187105 7.61303
lowerneck 3.25178 -14.5317 -15.6522
upperneck 3.37765 -20.7553 16.8382
head 4.06758 -10.4584 6.64158
lclavicle 1.16289e-14 1.98785e-15 0
lhumerus -36.9657 -42.7381 110.711
lradius 90.257 -0 0
lwrist 47.8474 0 0
lhand -8.5959 46.6091 -0.242633
lfingers 7.12502 -0 0
lthumb 17.3312 75.7983 -0.248545
rclavicle 1.16289e-14 1.98785e-15 0
rhumerus 38.6989 26.6032 -41.5774
rradius 86.3216 -0 0
rwrist -15.9685 0 0
rhand -6.23773 -16.7756 0.319039
rfingers 7.12502 -0 0
rthumb 19.5041 -44.6719 0.626601
515
root -5.64951 14.8451 -42.2977 2.62026 -30.0372 -6.17415
lfemur -26.5972 27.888 -16.1286
ltibia 62.8321 -0 0
lfoot -24.3666 28.2954 -0.162733
ltoes -5.98547 0 0
rfemur -34.3145 -13.245 10.5541
rtibia 73.5501 -0 0
rfoot -6.78606 -8.57304 0.00455871
rtoes 13.5579 -0 0
lowerback 16.6922 0.057274 -7.41606
upperback -0.178417 -1.14908 2.70183
thorax -9.38641 -0.129064 7.48204
lowerneck 2.96301 -14.3644 -15.5407
upperneck 3.72095 -20.4987 16.4527
head 4.12205 -10.3166 6.51181
lclavicle 1.16289e-14 1.98785e-15 0
lhumerus -39.027 -40.9096 110.665
lradius 90.99 -0 0
lwrist 49.5723 0 0
lhand -8.86434 46.9645 -0.242421
lfingers 7.12502 -0 0
lthumb 17.0728 76.1762 -0.248374
rclavicle 1.16289e-14 1.98785e-15 0
rhumerus 36.634 25.6503 -42.948
rradius 84.2148 -0 0
rwrist -15.078 0 0
rhand -7.36824 -16.8932 0.350992
rfingers 7.12502 -0 0
rthumb 18.4178 -44.9036 0.659855
516
root -5.6785 14.8232 -42.292 2.26274 -33.2296 -5.77711
lfemur -24.6926 27.1477 -15.0724
ltibia 62.2608 -0 0
lfoot -24.1013 28.0438 -0.163756
ltoes -7.12164 0 0
rfemur -35.2768 -13.9223 10.3182
rtibia 73.2336 -0 0
rfoot -6.73391 -7.4865 0.0142898
rtoes 13.2919 -0 0
lowerback 16.729 0.175665 -7.47381
upperback -0.131219 -1.01849 2.58077
thorax -9.37929 -0.0699441 7.34931
lowerneck 2.67375 -14.1953 -15.4279
upperneck 4.06132 -20.2376 16.0664
head 4.17521 -10.1734 6.3812
lclavicle 1.16289e-14 1.98785e-15 0
lhumerus -41.0564 -39.0758 110.53
lradius 91.7319 -0 0
lwrist 51.3039 0 0
lhand -9.13327 47.3193 -0.240446
lfingers 7.12502 -0 0
lthumb 16.8139 76.5536 -0.246397
rclavicle 1.16289e-14 1.98785e-15 0
rhumerus 34.6007 24.6349 -44.2739
rradius 82.0832 -0 0
rwrist -14.1938 0 0
rhand -8.5033 -17.0265 0.380184
rfingers 7.12502 -0 0
rthumb 17.3272 -45.152 0.688092
517
root -5.70484 14.8011 -42.284 1.85955 -36.3547 -5.33703
lfemur -22.8029 26.352 -14.0417
ltibia 61.6919 -0 0
lfoot -23.8344 27.7902 -0.16354
ltoes -8.27093 0 0
rfemur -36.2521 -14.6003 10.0906
rtibia 72.907 -0 0
rfoot -6.67739 -6.38924 0.0235214
rtoes 13.0142 -0 0
lowerback 16.7651 0.295472 -7.5309
upperback -0.0839766 -0.885816 2.45931
thorax -9.37191 -0.00990591 7.21521
lowerneck 2.38483 -14.0247 -15.3141
upperneck 4.39774 -19.9727 15.6806
head 4.22688 -10.0293 6.25012
lclavicle 1.16289e-14 1.98785e-15 0
lhumerus -43.0558 -37.2443 110.311
lradius 92.4807 -0 0
lwrist 53.0371 0 0
lhand -9.40191 47.6725 -0.236718
lfingers 7.12502 -0 0
lthumb 16.5553 76.9295 -0.242623
rclavicle 1.16289e-14 1.98785e-15 0
rhumerus 32.6056 23.5614 -45.5497
rradius 79.9328 -0 0
rwrist -13.3183 0 0
rhand -9.63971 -17.1753 0.406064
rfingers 7.12502 -0 0
rthumb 16.2353 -45.4165 0.710748
518
root -5.72921 14.7789 -42.2741 1.4055 -39.4026 -4.84861
lfemur -20.9348 25.5036 -13.0416
ltibia 61.127 -0 0
lfoot -23.5667 27.5351 -0.162064
ltoes -9.43021 0 0
rfemur -37.2379 -15.277 9.87222
rtibia 72.5711 -0 0
rfoot -6.61662 -5.28425 0.0320961
rtoes 12.7253 -0 0
lowerback 16.8002 0.416364 -7.58716
upperback -0.0368287 -0.751398 2.33781
thorax -9.36429 0.0508893 7.0801
lowerneck 2.09707 -13.8532 -15.1996
upperneck 4.72923 -19.7049 15.2963
head 4.27691 -9.88462 6.11893
lclavicle 1.16289e-14 1.98785e-15 0
lhumerus -45.0269 -35.4227 110.013
lradius 93.2342 -0 0
lwrist 54.7671 0 0
lhand -9.6695 48.0231 -0.231269
lfingers 7.12502 -0 0
lthumb 16.2977 77.3026 -0.237084
rclavicle 1.16289e-14 1.98785e-15 0
rhumerus 30.6543 22.435 -46.7711
rradius 77.7694 -0 0
rwrist -12.454 0 0
rhand -10.7742 -17.3391 0.428107
rfingers 7.12502 -0 0
rthumb 15.1452 -45.6964 0.727308
519
root -5.75231 14.7567 -42.2628 0.894769 -42.3635 -4.30599
lfemur -19.0942 24.6057 -12.0765
ltibia 60.5678 -0 0
lfoot -23.2989 27.2793 -0.159322
ltoes -10.5963 0 0
rfemur -38.2319 -15.9502 9.66362
rtibia 72.2267 -0 0
rfoot -6.55173 -4.17457 0.0398658
rtoes 12.4259 -0 0
lowerback 16.8344 0.538014 -7.64242
upperback 0.0100907 -0.615602 2.2166
thorax -9.35645 0.11228 6.94436
lowerneck 1.81128 -13.6812 -15.0847
upperneck 5.05485 -19.4348 14.9146
head 4.32515 -9.73984 5.988
lclavicle 1.16289e-14 1.98785e-15 0
lhumerus -46.971 -33.6183 109.642
lradius 93.9905 -0 0
lwrist 56.4891 0 0
lhand -9.93525 48.3701 -0.224148
lfingers 7.12502 -0 0
lthumb 16.0419 77.6721 -0.22983
rclavicle 1.16289e-14 1.98785e-15 0
rhumerus 28.7516 21.2611 -47.9342
rradius 75.599 -0 0
rwrist -11.6036 0 0
rhand -11.9037 -17.5175 0.44582
rfingers 7.12502 -0 0
rthumb 14.0602 -45.9909 0.737315
520
root -5.77482 14.7345 -42.2505 0.321026 -45.2271 -3.70277
lfemur -17.2869 23.6618 -11.1504
ltibia 60.0159 -0 0
lfoot -23.0317 27.0236 -0.15532
ltoes -11.7662 0 0
rfemur -39.2317 -16.618 9.46544
rtibia 71.8748 -0 0
rfoot -6.48287 -3.0632 0.0466929
rtoes 12.1167 -0 0
lowerback 16.8674 0.66009 -7.69652
upperback 0.05665 -0.478787 2.09602
thorax -9.3484 0.174106 6.80835
lowerneck 1.52828 -13.5093 -14.9698
upperneck 5.37367 -19.1633 14.5365
head 4.37145 -9.59535 5.85766
lclavicle 1.16289e-14 1.98785e-15 0
lhumerus -48.8891 -31.8385 109.203
lradius 94.7475 -0 0
lwrist 58.198 0 0
lhand -10.1984 48.7125 -0.215423
lfingers 7.12502 -0 0
lthumb 15.7886 78.0367 -0.220928
rclavicle 1.16289e-14 1.98785e-15 0
rhumerus 26.9017 20.0455 -49.0364
rradius 73.4276 -0 0
rwrist -10.7696 0 0
rhand -13.0248 -17.7102 0.458748
rfingers 7.12502 -0 0
rthumb 12.9832 -46.2993 0.740375
521
root -5.79744 14.7125 -42.2379 -0.322536 -47.9835 -3.0321
lfemur -15.5176 22.6757 -10.2662
ltibia 59.473 -0 0
lfoot -22.7659 26.7685 -0.150076
ltoes -12.9365 0 0
rfemur -40.2348 -17.2781 9.27812
rtibia 71.516 -0 0
rfoot -6.41016 -1.95316 0.0524517
rtoes 11.7984 -0 0
lowerback 16.8993 0.782261 -7.74931
upperback 0.102721 -0.341315 1.97641
thorax -9.34017 0.236204 6.67244
lowerneck 1.24888 -13.3379 -14.855
upperneck 5.68478 -18.8913 14.1629
head 4.41566 -9.45156 5.72829
lclavicle 1.16289e-14 1.98785e-15 0
lhumerus -50.7816 -30.0902 108.702
lradius 95.503 -0 0
lwrist 59.8891 0 0
lhand -10.4582 49.0492 -0.205179
lfingers 7.12502 -0 0
lthumb 15.5386 78.3954 -0.210467
rclavicle 1.16289e-14 1.98785e-15 0
rhumerus 25.108 18.7944 -50.0754
rradius 71.261 -0 0
rwrist -9.95444 0 0
rhand -14.1344 -17.9168 0.466477
rfingers 7.12502 -0 0
rthumb 11.9174 -46.6207 0.736155
522
root -5.82084 14.6908 -42.2253 -1.043 -50.6225 -2.28688
lfemur -13.7908 21.6514 -9.4268
ltibia 58.9405 -0 0
lfoot -22.5023 26.5149 -0.143623
ltoes -14.1043 0 0
rfemur -41.2389 -17.9284 9.10198
rtibia 71.1513 -0 0
rfoot -6.33375 -0.847469 0.0570291
rtoes 11.4718 -0 0
lowerback 16.9298 0.904198 -7.8006
upperback 0.148179 -0.203548 1.8581
thorax -9.33178 0.298414 6.53699
lowerneck 0.973863 -13.1674 -14.7407
upperneck 5.98733 -18.6196 13.7948
head 4.45764 -9.30887 5.60023
lclavicle 1.16289e-14 1.98785e-15 0
lhumerus -52.6485 -28.3803 108.145
lradius 96.255 -0 0
lwrist 61.5574 0 0
lhand -10.7138 49.3793 -0.19352
lfingers 7.12502 -0 0
lthumb 15.2925 78.7471 -0.19855
rclavicle 1.16289e-14 1.98785e-15 0
rhumerus 23.3734 17.514 -51.05
rradius 69.1051 -0 0
rwrist -9.16082 0 0
rhand -15.2293 -18.1367 0.468635
rfingers 7.12502 -0 0
rthumb 10.866 -46.9545 0.724393
